<?xml version="1.0" standalone="no"?>
<!DOCTYPE svg PUBLIC "-//W3C//DTD SVG 20010904//EN"
 "http://www.w3.org/TR/2001/REC-SVG-20010904/DTD/svg10.dtd">
<svg version="1.0" xmlns="http://www.w3.org/2000/svg"
 width="500.000000pt" height="500.000000pt" viewBox="0 0 500.000000 500.000000"
 preserveAspectRatio="xMidYMid meet">

<g transform="translate(0.000000,500.000000) scale(0.100000,-0.100000)"
fill="#000000" stroke="none">
<path d="M2262 3919 c-24 -12 -54 -38 -67 -58 -13 -20 -114 -271 -224 -559
-146 -379 -199 -530 -195 -548 3 -13 18 -33 31 -44 23 -18 41 -20 160 -20 148
0 182 9 207 58 7 15 91 230 186 477 266 695 251 643 207 693 -19 20 -29 22
-141 22 -104 0 -127 -3 -164 -21z"/>
<path d="M2703 3628 c-6 -7 -52 -120 -102 -251 -66 -172 -91 -251 -91 -283 0
-42 72 -286 107 -361 22 -47 61 -60 203 -67 141 -7 166 0 186 49 11 28 1 65
-127 465 -77 239 -146 441 -153 448 -10 11 -15 11 -23 0z"/>
<path d="M1112 2123 c-5 -15 -33 -91 -60 -168 -28 -77 -53 -148 -57 -157 -6
-15 -1 -18 34 -18 39 0 41 2 51 40 l11 40 64 0 64 0 12 -40 c11 -38 14 -40 51
-40 21 0 38 4 38 8 0 4 -29 87 -64 183 l-63 174 -36 3 c-30 3 -36 -1 -45 -25z
m77 -180 c1 -8 -12 -13 -34 -13 -19 0 -35 3 -35 6 0 3 7 31 17 62 l16 57 18
-50 c9 -27 18 -56 18 -62z"/>
<path d="M1442 2129 c-121 -60 -133 -259 -19 -327 71 -43 166 -35 219 18 26
26 28 34 28 104 l0 76 -70 0 -70 0 0 -35 c0 -33 2 -35 35 -35 30 0 35 -3 35
-23 0 -42 -24 -62 -74 -62 -36 0 -51 6 -72 26 -49 50 -39 156 20 194 32 21
109 22 141 1 l25 -16 0 39 c0 50 -17 61 -97 61 -39 0 -72 -7 -101 -21z"/>
<path d="M1750 2010 c0 -156 9 -189 58 -213 71 -36 138 -28 187 23 l30 31 3
150 3 149 -35 0 -34 0 -4 -134 c-3 -115 -6 -137 -22 -155 -27 -30 -70 -27 -95
5 -19 24 -21 40 -21 155 l0 129 -35 0 -35 0 0 -140z"/>
<path d="M2130 1965 l0 -185 35 0 34 0 3 108 3 107 69 -107 c61 -97 71 -108
97 -108 l29 0 0 185 0 185 -35 0 -34 0 -3 -112 -3 -112 -72 112 c-61 94 -76
112 -98 112 l-25 0 0 -185z"/>
<path d="M2572 2129 c-121 -60 -133 -259 -19 -327 71 -43 166 -35 219 18 26
26 28 34 28 104 l0 76 -70 0 -70 0 0 -35 c0 -33 2 -35 35 -35 30 0 35 -3 35
-23 0 -42 -24 -62 -74 -62 -36 0 -51 6 -72 26 -49 50 -39 156 20 194 32 21
109 22 141 1 l25 -16 0 39 c0 50 -17 61 -97 61 -39 0 -72 -7 -101 -21z"/>
<path d="M3070 1966 l0 -184 39 -7 c53 -9 120 2 167 28 79 44 109 167 61 257
-34 64 -88 90 -189 90 l-78 0 0 -184z m145 110 c53 -23 69 -59 66 -149 -2 -45
-50 -87 -100 -87 l-41 0 0 125 c0 140 1 142 75 111z"/>
<path d="M3440 1965 l0 -185 105 0 105 0 0 35 0 35 -71 0 -70 0 3 48 3 47 53
3 c50 3 52 4 52 33 0 29 -1 29 -55 29 l-55 0 0 35 0 35 65 0 65 0 0 35 0 35
-100 0 -100 0 0 -185z"/>
<path d="M3692 2138 c3 -7 31 -91 64 -185 59 -172 59 -173 89 -173 l30 0 62
185 61 185 -38 0 -39 0 -21 -72 c-12 -40 -26 -91 -32 -113 -6 -22 -14 -43 -18
-47 -3 -5 -24 46 -45 112 l-39 120 -39 0 c-27 0 -38 -4 -35 -12z"/>
</g>
</svg>
